<svg id="email" xmlns="http://www.w3.org/2000/svg" width="54.001" height="54.001" viewBox="0 0 54.001 54.001">
  <path id="Path_19" data-name="Path 19" d="M229.016,157.5a13.186,13.186,0,1,1-13.186,13.186A13.191,13.191,0,0,1,229.016,157.5Zm0,3.768a9.419,9.419,0,1,0,9.419,9.419A9.422,9.422,0,0,0,229.016,161.268Z" transform="translate(-203.273 -143.687)" fill="#fff" fill-rule="evenodd"/>
  <path id="Path_20" data-name="Path 20" d="M138.4,75.931a1.884,1.884,0,0,1,1.986,3.2,27,27,0,1,1,12.787-22.957v5.948a9.154,9.154,0,1,1-18.308,0V45.6a1.884,1.884,0,1,1,3.768,0V62.125a5.386,5.386,0,1,0,10.773,0V56.177A23.235,23.235,0,1,0,138.4,75.931Z" transform="translate(-99.173 -29.176)" fill="#fff" fill-rule="evenodd"/>
</svg>
