<svg xmlns="http://www.w3.org/2000/svg" width="47.225" height="53" viewBox="0 0 47.225 53">
  <g id="location" transform="translate(0.5 0.5)">
    <path id="Subtraction_1" data-name="Subtraction 1" d="M23.112,52C11.98,52,0,49.9,0,45.294c.014-4.689,11.892-6.1,17-6.484C12.486,31.3,7.109,21.258,7.109,16.068a16.013,16.013,0,1,1,32.026,0c0,2.867-1.716,9.14-9.889,22.743,5.1.387,16.978,1.8,16.978,6.484C46.225,49.9,34.244,52,23.112,52Zm0-43.332a7,7,0,0,0-6.74,7.222,7,7,0,0,0,6.74,7.222,7,7,0,0,0,6.74-7.222A7,7,0,0,0,23.112,8.668Z" fill="#fff" stroke="rgba(0,0,0,0)" stroke-miterlimit="10" stroke-width="1"/>
  </g>
</svg>
