<svg xmlns="http://www.w3.org/2000/svg" width="107.372" height="55.538" viewBox="0 0 107.372 55.538">
  <path id="lojistikicon" d="M113.752,194.088l-6.586.091a1.725,1.725,0,0,1-.04-3.45l6.622-.091a8.5,8.5,0,0,1,16.654-.02l32.084.106V148.779h-55.34a1.731,1.731,0,0,1,0-3.463h57.072a1.732,1.732,0,0,1,1.731,1.732v9.515h14.521a1.725,1.725,0,0,1,1.225.507l14.782,14.78a1.722,1.722,0,0,1,.506,1.225v.848q0,9.268,0,18.532a1.732,1.732,0,0,1-1.731,1.731h-6.63a8.5,8.5,0,0,1-16.625-.1c-13.87.172-27.721.033-41.594-.016a8.5,8.5,0,0,1-16.65.02ZM91.343,183.457a1.731,1.731,0,0,1,0-3.463h15.569a1.731,1.731,0,0,1,0,3.463Zm0-23.949a1.731,1.731,0,0,1,0-3.463H106.91a1.731,1.731,0,0,1,0,3.463Zm83.939.517v12.232h16.7l-12.233-12.232Zm18.237,15.7H173.55a1.732,1.732,0,0,1-1.731-1.731V160.026h-5.87v30.682l6.047-.073a8.5,8.5,0,0,1,16.67.089h4.855v-7.229h-2.98a1.731,1.731,0,1,1,0-3.463h2.98v-4.309ZM96,177.746a1.731,1.731,0,0,1,0-3.463h15.567a1.731,1.731,0,0,1,0,3.463Zm0-12.528a1.731,1.731,0,1,1,0-3.463H111.57a1.731,1.731,0,1,1,0,3.463Zm5.111,6.265a1.731,1.731,0,1,1,0-3.463h15.569a1.731,1.731,0,1,1,0,3.463Zm84.245,20.926a5.038,5.038,0,1,0-10.075-.059,5.038,5.038,0,0,0,10.075.059Zm-59.721-3.621a5.04,5.04,0,1,0,1.475,3.563,5.024,5.024,0,0,0-1.475-3.563Z" transform="translate(-89.612 -145.316)" fill="#17b978"/>
</svg>
