<svg xmlns="http://www.w3.org/2000/svg" width="52" height="52" viewBox="0 0 52 52">
  <g id="telephone" transform="translate(0 -0.263)">
    <path id="Shape" d="M31.4,50.524c-5.837-2.13-12.2-6.453-17.929-12.172C7.878,32.766,3.629,26.573,1.507,20.914-.971,14.307-.384,8.922,3.2,5.337L6.213,2.332l0,0,.842-.842a5.087,5.087,0,0,1,7.867.839L20.5,10.065l.032.048a5.043,5.043,0,0,1-.694,6.316l-4.208,4.206a1.009,1.009,0,0,0-.22,1.105.979.979,0,0,1,.061.21,20.438,20.438,0,0,0,3.164,5.621,27.579,27.579,0,0,0,11.6,8.787,1.016,1.016,0,0,0,1.108-.221l4.208-4.2a5.057,5.057,0,0,1,6.323-.693,1.094,1.094,0,0,1,.112.083l7.719,6.557a5.076,5.076,0,0,1,.8,7.835l-2.838,2.834A11.947,11.947,0,0,1,38.91,52,22.211,22.211,0,0,1,31.4,50.524Z" transform="translate(0 0.263)" fill="#fff"/>
  </g>
</svg>
